<?xml version="1.0" encoding="UTF-8" standalone="no"?>
<svg
   xmlns:dc="http://purl.org/dc/elements/1.1/"
   xmlns:cc="http://creativecommons.org/ns#"
   xmlns:rdf="http://www.w3.org/1999/02/22-rdf-syntax-ns#"
   xmlns:svg="http://www.w3.org/2000/svg"
   xmlns="http://www.w3.org/2000/svg"
   xmlns:sodipodi="http://sodipodi.sourceforge.net/DTD/sodipodi-0.dtd"
   xmlns:inkscape="http://www.inkscape.org/namespaces/inkscape"
   version="1.0"
   width="249.72894"
   height="126.26049"
   id="svg2"
   inkscape:version="0.92.0 r"
   sodipodi:docname="icon-opensuse.svg"
   viewBox="0 0 234.12088 118.36921">
  <metadata
     id="metadata29">
    <rdf:RDF>
      <cc:Work
         rdf:about="">
        <dc:format>image/svg+xml</dc:format>
        <dc:type
           rdf:resource="http://purl.org/dc/dcmitype/StillImage" />
        <dc:title />
      </cc:Work>
    </rdf:RDF>
  </metadata>
  <defs
     id="defs27" />
  <sodipodi:namedview
     pagecolor="#ffffff"
     bordercolor="#666666"
     borderopacity="1"
     objecttolerance="10"
     gridtolerance="10"
     guidetolerance="10"
     inkscape:pageopacity="0"
     inkscape:pageshadow="2"
     inkscape:window-width="1600"
     inkscape:window-height="844"
     id="namedview25"
     showgrid="false"
     fit-margin-top="0"
     fit-margin-left="0"
     fit-margin-right="0"
     fit-margin-bottom="0"
     inkscape:zoom="0.90342679"
     inkscape:cx="115.70862"
     inkscape:cy="39.792808"
     inkscape:window-x="0"
     inkscape:window-y="0"
     inkscape:window-maximized="1"
     inkscape:current-layer="svg2" />
  <path
     d="m 209.33187,39.656355 c -5.46064,-0.20052 -9.74704,-4.80372 -9.56466,-10.27218 0.0841,-2.64754 1.21583,-5.0947 3.13905,-6.90149 1.93101,-1.80627 4.45313,-2.74648 7.10068,-2.64688 5.46845,0.19137 9.75604,4.7869 9.57234,10.2637 -0.0828,2.6392 -1.19901,5.08622 -3.13004,6.90083 -1.94002,1.79845 -4.46215,2.7388 -7.11751,2.65602 z m 2.2983,-8.98258 c 2.43032,0 4.40267,-1.31476 4.40267,-2.92951 0,-1.62323 -1.97247,-2.93866 -4.40267,-2.93866 -2.43154,0 -4.3962,1.31543 -4.3962,2.93866 0,1.61475 1.96466,2.92951 4.3962,2.92951"
     style="fill:#73ba25;fill-rule:nonzero"
     id="path4"
     inkscape:connector-curvature="0" />
  <path
     d="m 96.987736,96.611295 0.35143,-0.033 0.057,-0.41614 c -0.09,-0.32674 -0.30193,-0.62036 -0.62933,-4.67085 -0.2779,-3.58485 -0.84123,-13.41571 4.106884,-18.29079 1.91955,-1.90255 4.85041,-3.59305 7.16205,-4.13988 9.48006,-2.311 21.7856,-0.71053 32.29451,11.44029 5.42256,6.27899 8.08447,9.14514 9.41536,10.42718 l 0.4568,0.42444 0.55566,0.40029 c 0.43263,0.24489 18.06175,8.361585 18.06175,8.361585 l 0.3591,-0.09 0.009,-0.383125 c -0.11419,-0.1307 -11.17005,-14.41297 -9.211,-26.17923 1.55162,-9.37406 9.01444,-8.53296 19.32807,-7.35745 3.3723,0.38378 7.21025,0.82473 11.17889,0.91476 11.0799,0.0654 23.01883,-1.96775 30.37628,-5.18533 4.76036,-2.08196 7.79775,-3.45417 9.7008,-5.18534 0.68506,-0.56333 1.04416,-1.49393 1.41208,-2.47405 l 0.25374,-0.66103 c 0.30959,-0.79237 0.75873,-2.49055 0.95543,-3.41349 0.09,-0.40795 0.13068,-0.84941 -0.15604,-1.0695 l -1.02013,0.18774 c -3.22511,1.9354 -11.30192,5.62627 -18.86243,5.77335 -9.36588,0.19539 -28.24469,-9.42356 -30.21258,-10.44433 l -0.18774,-0.22009 c -0.47445,-1.1273 -3.3076,-7.83127 -3.90392,-9.24336 13.58824,8.94909 24.85586,13.89785 33.48717,14.6654 9.6031,0.85708 17.09125,-4.38477 20.2922,-6.62289 0.62803,-0.42444 1.10249,-0.76755 1.29789,-0.84057 l 0.20423,-0.33493 c -0.53162,-3.37231 -5.55327,-19.70354 -9.34169,-23.62333 -1.05301,-1.07781 -1.89423,-2.12262 -3.59305,-3.11923 -13.72648,-8.001978 -46.3154,-12.83653 -47.8417,-13.056617 l -0.26139,0.07353 -0.0977,0.228399 c 0,0 -0.12302,6.761123 -0.13954,7.512835 C 169.51405,8.855733 145.32051,1.040968 122.63532,0.24924298 103.40639,-0.42841502 77.137136,-1.343175 40.016242,21.471403 l -1.09431,0.68571 C 21.464042,33.049935 9.4115725,46.474485 3.1078945,62.086985 c -1.97607,4.90744 -4.637854,15.98864 -2.00907,26.41582 1.143159,4.56497 3.258113,9.13748 6.116594,13.236805 6.4426915,9.25934 17.2618435,15.40894 28.9140335,16.44543 16.44542,1.46925 28.906364,-5.9199 33.339984,-19.753035 3.04556,-9.54541 0,-23.54914 -11.67688,-30.69405 -9.496574,-5.8222 -19.720034,-4.4913 -25.640064,-0.57982 -5.14415,3.41297 -8.05901,8.70419 -8.00198,14.52651 0.1142,10.31299 9.00678,15.80025 15.39243,15.80856 1.86122,0 3.72309,-0.31843 5.82986,-1.00414 0.74353,-0.22905 1.45341,-0.50617 2.22916,-0.9883 l 0.23723,-0.15473 0.15473,-0.09 -0.057,0.0247 c 1.46159,-0.98011 2.34335,-2.59644 2.34335,-4.32774 0,-0.47381 -0.0735,-0.95542 -0.20423,-1.43742 -0.75107,-2.60474 -3.33178,-4.18873 -6.01006,-3.69906 l -0.3591,0.0735 -0.4898,0.16305 -0.71052,0.23723 c -1.46978,0.36729 -2.58059,0.39211 -2.80898,0.39964 -0.75107,-0.0489 -4.43428,-1.15069 -4.43428,-5.18469 v -0.0488 c 0.009,-1.4781 0.60452,-2.51524 0.93126,-3.07857 1.13485,-1.79652 4.27058,-3.56005 8.50815,-3.18458 5.55326,0.47329 9.55425,3.32347 12.207854,8.69653 2.46639,4.99695 1.82134,11.13771 -1.65763,15.64487 -3.454174,4.467265 -9.602464,6.361485 -17.784644,5.470755 -8.2474,-0.90593 -15.22042,-5.650315 -19.123707,-13.040105 -3.821442,-7.21857 -4.03399,-15.7844 -0.54683,-22.36532 8.353417,-15.75972 24.120657,-15.59667 32.768467,-14.10208 12.803534,2.21266 24.423244,12.46028 29.592084,26.0892 0.82472,2.17211 1.24904,3.89497 1.61632,5.46258 l 0.55566,2.35985 14.46053,7.06305 0.19669,0.13888 3.9e-4,-1.3e-4 z M 199.77612,19.691365 c -2.72649,2.53108 -4.28708,5.98525 -4.41778,9.70899 -0.25242,7.67524 5.774,14.14261 13.44872,14.42882 3.74025,0.12238 7.28378,-1.19266 10.00273,-3.74024 2.71895,-2.53941 4.27942,-5.98525 4.41777,-9.70081 0.2614,-7.68354 -5.76515,-14.1591 -13.45624,-14.43636 -3.72374,-0.12237 -7.27625,1.19202 -9.9952,3.7396"
     style="fill:#73ba25;fill-rule:evenodd"
     id="path6"
     inkscape:connector-curvature="0" />
</svg>
