<?xml version="1.0" encoding="UTF-8" standalone="no"?>
<!-- Created with Inkscape (http://www.inkscape.org/) -->

<svg
   xmlns:dc="http://purl.org/dc/elements/1.1/"
   xmlns:cc="http://creativecommons.org/ns#"
   xmlns:rdf="http://www.w3.org/1999/02/22-rdf-syntax-ns#"
   xmlns:svg="http://www.w3.org/2000/svg"
   xmlns="http://www.w3.org/2000/svg"
   xmlns:sodipodi="http://sodipodi.sourceforge.net/DTD/sodipodi-0.dtd"
   xmlns:inkscape="http://www.inkscape.org/namespaces/inkscape"
   id="svg2"
   version="1.1"
   inkscape:version="0.91 r13725"
   xml:space="preserve"
   width="333.61624"
   height="333.61749"
   viewBox="0 0 333.61624 333.61749"
   sodipodi:docname="FB-logo.svg"><metadata
     id="metadata8"><rdf:RDF><cc:Work
         rdf:about=""><dc:format>image/svg+xml</dc:format><dc:type
           rdf:resource="http://purl.org/dc/dcmitype/StillImage" /><dc:title></dc:title></cc:Work></rdf:RDF></metadata><defs
     id="defs6" /><sodipodi:namedview
     pagecolor="#ffffff"
     bordercolor="#666666"
     borderopacity="1"
     objecttolerance="10"
     gridtolerance="10"
     guidetolerance="10"
     inkscape:pageopacity="0"
     inkscape:pageshadow="2"
     inkscape:window-width="677"
     inkscape:window-height="480"
     id="namedview4"
     showgrid="false"
     fit-margin-top="0"
     fit-margin-left="0"
     fit-margin-right="0"
     fit-margin-bottom="0"
     inkscape:zoom="0.37012621"
     inkscape:cx="230.33798"
     inkscape:cy="-37.449297"
     inkscape:window-x="0"
     inkscape:window-y="0"
     inkscape:window-maximized="0"
     inkscape:current-layer="g12" /><g
     id="g10"
     inkscape:groupmode="layer"
     inkscape:label="ink_ext_XXXXXX"
     transform="matrix(1.25,0,0,-1.25,-376.24988,501.82961)"><g
       id="g12"
       transform="matrix(0.1,0,0,0.1,274.50095,320.43125)"><path
         d="m 2786.6195,-1858.6156 c 81.35,0 147.3,65.95 147.3,147.3 l 0,2374.33997 c 0,81.37 -65.95,147.30001 -147.3,147.30001 l -2374.31998,0 c -81.38,0 -147.31,-65.93001 -147.31,-147.30001 l 0,-2374.33997 c 0,-81.35 65.93,-147.3 147.31,-147.3 l 2374.31998,0"
         style="fill:#3d529e;fill-opacity:1;fill-rule:nonzero;stroke:none"
         id="path46"
         inkscape:connector-curvature="0" /><path
         d="m 2106.5095,-1858.6156 0,1033.54997 346.92,0 51.94,402.8 -398.86,0 0,257.17 c 0,116.620004 32.38,196.090004 199.62,196.090004 l 213.3,0.1 0,360.259996 c -36.91,4.9 -163.51,15.87 -310.81,15.87 -307.53,0 -518.07,-187.71 -518.07,-532.44 l 0,-297.05 -347.81,0 0,-402.8 347.81,0 0,-1033.54997 415.96,0"
         style="fill:#ffffff;fill-opacity:1;fill-rule:nonzero;stroke:none"
         id="path48"
         inkscape:connector-curvature="0" /></g></g></svg>